G04*
G04 #@! TF.GenerationSoftware,Altium Limited,Altium Designer,24.0.1 (36)*
G04*
G04 Layer_Physical_Order=1*
G04 Layer_Color=255*
%FSLAX44Y44*%
%MOMM*%
G71*
G04*
G04 #@! TF.SameCoordinates,811BA0F7-A594-4557-B5C9-4EDA185BC575*
G04*
G04*
G04 #@! TF.FilePolarity,Positive*
G04*
G01*
G75*
%ADD10R,1.5000X1.4000*%
%ADD11R,1.4000X1.5000*%
%ADD12C,0.5000*%
%ADD13C,0.4000*%
%ADD14C,0.3000*%
%ADD15R,1.5000X1.5000*%
%ADD16R,1.8000X1.8000*%
%ADD17C,2.5000*%
%ADD18C,1.7000*%
%ADD19C,1.5000*%
G36*
X970081Y535000D02*
X970081Y535000D01*
X972706Y535000D01*
X977875Y534088D01*
X982808Y532293D01*
X987354Y529668D01*
X989364Y527981D01*
X1070284Y460082D01*
X1070284Y460082D01*
X1071538Y459029D01*
X1073803Y456663D01*
X1075798Y454064D01*
X1077497Y451264D01*
X1078881Y448295D01*
X1079934Y445193D01*
X1080643Y441995D01*
X1081000Y438739D01*
X1081000Y437101D01*
X1081000Y370000D01*
Y368034D01*
X1080487Y364135D01*
X1079469Y360336D01*
X1077964Y356703D01*
X1075998Y353297D01*
X1073604Y350177D01*
X1070823Y347396D01*
X1067703Y345002D01*
X1064297Y343036D01*
X1060664Y341531D01*
X1056865Y340513D01*
X1052966Y340000D01*
X1014322D01*
X1014322Y340000D01*
X1011913Y335616D01*
X1006461Y327228D01*
X1000402Y319267D01*
X993772Y311776D01*
X986605Y304796D01*
X978941Y298366D01*
X970822Y292520D01*
X962293Y287292D01*
X957847Y285000D01*
X834153Y285000D01*
X834153Y285000D01*
X829233Y287536D01*
X819840Y293397D01*
X810958Y300007D01*
X802648Y307322D01*
X794964Y315293D01*
X787959Y323866D01*
X781679Y332984D01*
X776166Y342586D01*
X771459Y352606D01*
X767587Y362979D01*
X764578Y373633D01*
X762451Y384498D01*
X762284Y385995D01*
X763130Y386941D01*
X773500D01*
X774671Y387174D01*
X775663Y387837D01*
X776326Y387902D01*
X786707Y377521D01*
X787038Y376722D01*
X788080Y375364D01*
X789438Y374322D01*
X791019Y373667D01*
X792716Y373444D01*
X797000D01*
Y368000D01*
X821000D01*
Y373444D01*
X835785D01*
X853142Y356086D01*
X852363Y355070D01*
X851597Y355512D01*
X848500Y356342D01*
Y344500D01*
X860342D01*
X859512Y347597D01*
X859070Y348363D01*
X860086Y349142D01*
X864444Y344784D01*
Y330000D01*
X859000D01*
Y306000D01*
X883000D01*
Y306000D01*
X884000D01*
Y306000D01*
X908000D01*
Y330000D01*
X907800D01*
X907314Y331173D01*
X932826Y356686D01*
X934152Y358670D01*
X934618Y361011D01*
Y372466D01*
X940827Y378675D01*
X942000Y378189D01*
Y360500D01*
X966000D01*
Y384500D01*
X948311D01*
X947825Y385673D01*
X980326Y418174D01*
X981652Y420159D01*
X982118Y422500D01*
Y470000D01*
X981652Y472341D01*
X980326Y474326D01*
X941076Y513576D01*
X939091Y514902D01*
X936750Y515368D01*
X921500D01*
Y519250D01*
X900500D01*
Y515368D01*
X851784D01*
X842826Y524326D01*
X840841Y525652D01*
X838500Y526118D01*
X712757D01*
X710416Y525652D01*
X708432Y524326D01*
X706674Y522568D01*
X705348Y520584D01*
X704883Y518243D01*
Y515500D01*
X620500D01*
X620500Y514500D01*
X613500D01*
Y505000D01*
X611000D01*
Y502500D01*
X601500D01*
Y496556D01*
X591500D01*
Y500750D01*
X590500D01*
Y506750D01*
X571500D01*
Y500750D01*
X570500D01*
Y499068D01*
X569230Y498542D01*
X542636Y525136D01*
X541278Y526178D01*
X539697Y526833D01*
X538000Y527056D01*
X429000D01*
X427303Y526833D01*
X425722Y526178D01*
X424364Y525136D01*
X378864Y479636D01*
X377822Y478278D01*
X377167Y476697D01*
X376944Y475000D01*
Y420000D01*
X377167Y418303D01*
X377822Y416722D01*
X378864Y415364D01*
X391364Y402864D01*
X392722Y401822D01*
X394303Y401167D01*
X396000Y400944D01*
X438284D01*
X462118Y377110D01*
X461790Y375883D01*
X460403Y375512D01*
X457097Y373603D01*
X454397Y370903D01*
X452488Y367597D01*
X451658Y364500D01*
X480342D01*
X479512Y367597D01*
X477603Y370903D01*
X476236Y372271D01*
X476722Y373444D01*
X541000D01*
Y368000D01*
X565000D01*
Y374015D01*
X566571D01*
X568268Y374238D01*
X569849Y374893D01*
X571207Y375935D01*
X581497Y386225D01*
X592063D01*
X593760Y386449D01*
X594949Y386941D01*
X598870D01*
X599716Y385995D01*
X599549Y384498D01*
X597422Y373633D01*
X594413Y362979D01*
X590541Y352606D01*
X585834Y342586D01*
X580321Y332984D01*
X574041Y323866D01*
X567036Y315293D01*
X559352Y307322D01*
X551042Y300007D01*
X542160Y293397D01*
X532767Y287536D01*
X527847Y285000D01*
X404153D01*
X399707Y287292D01*
X391178Y292520D01*
X383059Y298366D01*
X375395Y304796D01*
X368228Y311776D01*
X361598Y319267D01*
X355539Y327228D01*
X350087Y335616D01*
X347678Y340000D01*
X311000Y340000D01*
X309034D01*
X305135Y340513D01*
X301336Y341531D01*
X297703Y343036D01*
X294297Y345002D01*
X291177Y347396D01*
X288396Y350177D01*
X286002Y353297D01*
X284036Y356703D01*
X282531Y360336D01*
X281513Y364135D01*
X281000Y368034D01*
Y370000D01*
Y437101D01*
X281000Y438739D01*
X281357Y441995D01*
X282066Y445193D01*
X283119Y448295D01*
X284503Y451264D01*
X286202Y454064D01*
X288197Y456663D01*
X290462Y459029D01*
X291716Y460082D01*
X372635Y527981D01*
X372635Y527981D01*
X372635Y527981D01*
X374646Y529668D01*
X379192Y532293D01*
X384125Y534088D01*
X389294Y535000D01*
X391919Y535000D01*
X970081Y535000D01*
X970081Y535000D01*
D02*
G37*
G36*
X564924Y462424D02*
X566909Y461098D01*
X569250Y460632D01*
X570500D01*
Y456750D01*
X571500D01*
Y450750D01*
X581000D01*
X590500D01*
Y456750D01*
X591500D01*
Y460632D01*
X597750D01*
X600091Y461098D01*
X600517Y461382D01*
X607249D01*
X607982Y460112D01*
X607147Y458667D01*
X606835Y457500D01*
X616000D01*
Y452500D01*
X606835D01*
X607147Y451333D01*
X608398Y449167D01*
X610167Y447398D01*
X612333Y446147D01*
X614749Y445500D01*
X615583D01*
X616069Y444327D01*
X591673Y419931D01*
X590500Y420417D01*
Y421750D01*
X571500D01*
Y415750D01*
X570500D01*
Y411867D01*
X565000D01*
Y417000D01*
X541000D01*
Y393000D01*
X541000D01*
Y392000D01*
X541000D01*
Y386556D01*
X471216D01*
X447556Y410216D01*
Y480000D01*
X453000D01*
Y480000D01*
X454000D01*
Y480000D01*
X478000D01*
Y499882D01*
X480000D01*
Y494500D01*
X502000D01*
Y499882D01*
X527466D01*
X564924Y462424D01*
D02*
G37*
G36*
X969883Y467466D02*
Y425034D01*
X924174Y379326D01*
X922848Y377341D01*
X922383Y375000D01*
Y363545D01*
X892906Y334068D01*
X891579Y332084D01*
X891165Y330000D01*
X884000D01*
Y330000D01*
X883000D01*
Y330000D01*
X877556D01*
Y347500D01*
X877333Y349197D01*
X876678Y350778D01*
X875636Y352136D01*
X843136Y384636D01*
X841778Y385678D01*
X840197Y386333D01*
X838500Y386556D01*
X821000D01*
Y392000D01*
X821000D01*
Y393000D01*
X821000D01*
Y417000D01*
X797000D01*
Y411118D01*
X780856D01*
X747675Y444299D01*
X748055Y445715D01*
X749667Y446147D01*
X751833Y447398D01*
X753602Y449167D01*
X754853Y451333D01*
X755165Y452500D01*
X746000D01*
Y455000D01*
X743500D01*
Y464165D01*
X742333Y463853D01*
X740534Y462814D01*
X739263Y463186D01*
X739100Y463331D01*
X737826Y465237D01*
X737118Y465945D01*
Y469500D01*
X741750D01*
Y470500D01*
X747750D01*
Y480000D01*
Y489500D01*
X741750D01*
Y490500D01*
X737118D01*
Y494500D01*
X761500D01*
Y498882D01*
X838466D01*
X876174Y461174D01*
X878159Y459848D01*
X880500Y459382D01*
X885217D01*
X885703Y458209D01*
X884397Y456903D01*
X882488Y453597D01*
X881658Y450500D01*
X896000D01*
X910342D01*
X909512Y453597D01*
X907603Y456903D01*
X906297Y458209D01*
X906783Y459382D01*
X907966D01*
X934174Y433174D01*
X936159Y431848D01*
X938500Y431382D01*
X942000D01*
Y425500D01*
X966000D01*
Y449500D01*
X942000D01*
Y444351D01*
X940730Y443922D01*
X914826Y469826D01*
X912841Y471152D01*
X910500Y471618D01*
X883034D01*
X852692Y501959D01*
X853178Y503132D01*
X900500D01*
Y499250D01*
X901500D01*
Y493250D01*
X911000D01*
X920500D01*
Y499250D01*
X921500D01*
Y503132D01*
X934216D01*
X969883Y467466D01*
D02*
G37*
G36*
X429000Y499583D02*
Y480000D01*
X434444D01*
Y414056D01*
X398716D01*
X390056Y422716D01*
Y445310D01*
X391326Y445695D01*
X391674Y445174D01*
X396000Y440849D01*
Y425500D01*
X420000D01*
Y449500D01*
X404651D01*
X402118Y452034D01*
Y460505D01*
X403388Y460845D01*
X404397Y459097D01*
X407097Y456397D01*
X410403Y454488D01*
X413500Y453658D01*
Y468000D01*
Y482342D01*
X411309Y481754D01*
X410651Y482893D01*
X427827Y500069D01*
X429000Y499583D01*
D02*
G37*
G36*
X727383Y455533D02*
Y449822D01*
X727848Y447481D01*
X729174Y445497D01*
X773500Y401171D01*
Y390000D01*
X714541D01*
X713817Y390000D01*
X712429Y390410D01*
X711214Y391198D01*
X710272Y392298D01*
X709681Y393619D01*
X709489Y395055D01*
X709712Y396485D01*
X710133Y397375D01*
X710814Y398333D01*
X710814Y398333D01*
X710814Y398333D01*
X710814Y398333D01*
X712508Y400357D01*
X715477Y404719D01*
X717846Y409433D01*
X719575Y414417D01*
X720632Y419586D01*
X721000Y424849D01*
X720672Y430115D01*
X719653Y435292D01*
X717963Y440290D01*
X715629Y445021D01*
X712692Y449405D01*
X709205Y453363D01*
X705227Y456829D01*
X700827Y459740D01*
X696082Y462048D01*
X691075Y463710D01*
X688500Y464291D01*
X688500Y475000D01*
X673500D01*
Y464291D01*
X673500Y464290D01*
X670925Y463710D01*
X665918Y462047D01*
X661173Y459740D01*
X656774Y456829D01*
X652795Y453363D01*
X649308Y449404D01*
X646372Y445021D01*
X644038Y440289D01*
X642347Y435292D01*
X641329Y430115D01*
X641000Y424850D01*
X641368Y419586D01*
X642425Y414417D01*
X644154Y409433D01*
X646523Y404719D01*
X649492Y400358D01*
X651186Y398333D01*
Y398333D01*
X651668Y397794D01*
X652288Y396485D01*
X652511Y395055D01*
X652319Y393619D01*
X651728Y392298D01*
X650786Y391198D01*
X649571Y390411D01*
X648183Y390000D01*
X586000D01*
Y395750D01*
X591500D01*
Y402455D01*
X674045Y485000D01*
X698381D01*
X727383Y455533D01*
D02*
G37*
%LPC*%
G36*
X590500Y518250D02*
X583500D01*
Y511750D01*
X590500D01*
Y518250D01*
D02*
G37*
G36*
X578500D02*
X571500D01*
Y511750D01*
X578500D01*
Y518250D01*
D02*
G37*
G36*
X608500Y514500D02*
X601500D01*
Y507500D01*
X608500D01*
Y514500D01*
D02*
G37*
G36*
X374000Y448500D02*
X365500D01*
Y440000D01*
X374000D01*
Y448500D01*
D02*
G37*
G36*
X360500D02*
X352000D01*
Y440000D01*
X360500D01*
Y448500D01*
D02*
G37*
G36*
X1010000Y448500D02*
X1001500D01*
Y440000D01*
X1010000D01*
Y448500D01*
D02*
G37*
G36*
X996500D02*
X988000D01*
Y440000D01*
X996500D01*
Y448500D01*
D02*
G37*
G36*
X1010000Y435000D02*
X1001500D01*
Y426500D01*
X1010000D01*
Y435000D01*
D02*
G37*
G36*
X996500D02*
X988000D01*
Y426500D01*
X996500D01*
Y435000D01*
D02*
G37*
G36*
X374000Y435000D02*
X365500D01*
Y426500D01*
X374000D01*
Y435000D01*
D02*
G37*
G36*
X360500D02*
X352000D01*
Y426500D01*
X360500D01*
Y435000D01*
D02*
G37*
G36*
X1063500Y415201D02*
Y407500D01*
X1071201D01*
X1070784Y409053D01*
X1069402Y411447D01*
X1067447Y413402D01*
X1065053Y414784D01*
X1063500Y415201D01*
D02*
G37*
G36*
X1058500D02*
X1056947Y414784D01*
X1054553Y413402D01*
X1052598Y411447D01*
X1051216Y409053D01*
X1050799Y407500D01*
X1058500D01*
Y415201D01*
D02*
G37*
G36*
X303500D02*
Y407500D01*
X311201D01*
X310784Y409053D01*
X309402Y411447D01*
X307447Y413402D01*
X305053Y414784D01*
X303500Y415201D01*
D02*
G37*
G36*
X298500D02*
X296947Y414784D01*
X294553Y413402D01*
X292598Y411447D01*
X291216Y409053D01*
X290800Y407500D01*
X298500D01*
Y415201D01*
D02*
G37*
G36*
X1071201Y402500D02*
X1063500D01*
Y394799D01*
X1065053Y395216D01*
X1067447Y396598D01*
X1069402Y398553D01*
X1070784Y400947D01*
X1071201Y402500D01*
D02*
G37*
G36*
X1058500D02*
X1050799D01*
X1051216Y400947D01*
X1052598Y398553D01*
X1054553Y396598D01*
X1056947Y395216D01*
X1058500Y394799D01*
Y402500D01*
D02*
G37*
G36*
X311201D02*
X303500D01*
Y394799D01*
X305053Y395216D01*
X307447Y396598D01*
X309402Y398553D01*
X310784Y400947D01*
X311201Y402500D01*
D02*
G37*
G36*
X298500D02*
X290800D01*
X291216Y400947D01*
X292598Y398553D01*
X294553Y396598D01*
X296947Y395216D01*
X298500Y394799D01*
Y402500D01*
D02*
G37*
G36*
X1010000Y383500D02*
X1001500D01*
Y375000D01*
X1010000D01*
Y383500D01*
D02*
G37*
G36*
X996500D02*
X988000D01*
Y375000D01*
X996500D01*
Y383500D01*
D02*
G37*
G36*
X374000Y383500D02*
X365500D01*
Y375000D01*
X374000D01*
Y383500D01*
D02*
G37*
G36*
X360500D02*
X352000D01*
Y375000D01*
X360500D01*
Y383500D01*
D02*
G37*
G36*
X1010000Y370000D02*
X1001500D01*
Y361500D01*
X1010000D01*
Y370000D01*
D02*
G37*
G36*
X996500D02*
X988000D01*
Y361500D01*
X996500D01*
Y370000D01*
D02*
G37*
G36*
X374000Y370000D02*
X365500D01*
Y361500D01*
X374000D01*
Y370000D01*
D02*
G37*
G36*
X360500D02*
X352000D01*
Y361500D01*
X360500D01*
Y370000D01*
D02*
G37*
G36*
X420000Y384500D02*
X396000D01*
Y360500D01*
X420000D01*
Y384500D01*
D02*
G37*
G36*
X480342Y359500D02*
X468500D01*
Y347658D01*
X471597Y348488D01*
X474903Y350397D01*
X477603Y353097D01*
X479512Y356403D01*
X480342Y359500D01*
D02*
G37*
G36*
X463500D02*
X451658D01*
X452488Y356403D01*
X454397Y353097D01*
X457097Y350397D01*
X460403Y348488D01*
X463500Y347658D01*
Y359500D01*
D02*
G37*
G36*
X948500Y356342D02*
Y344500D01*
X960342D01*
X959512Y347597D01*
X957603Y350903D01*
X954903Y353603D01*
X951597Y355512D01*
X948500Y356342D01*
D02*
G37*
G36*
X518500Y356342D02*
Y344500D01*
X530342D01*
X529512Y347597D01*
X527603Y350903D01*
X524903Y353603D01*
X521597Y355512D01*
X518500Y356342D01*
D02*
G37*
G36*
X513500D02*
X510403Y355512D01*
X507097Y353603D01*
X504397Y350903D01*
X502488Y347597D01*
X501658Y344500D01*
X513500D01*
Y356342D01*
D02*
G37*
G36*
X418500D02*
Y344500D01*
X430342D01*
X429512Y347597D01*
X427603Y350903D01*
X424903Y353603D01*
X421597Y355512D01*
X418500Y356342D01*
D02*
G37*
G36*
X413500D02*
X410403Y355512D01*
X407097Y353603D01*
X404397Y350903D01*
X402488Y347597D01*
X401658Y344500D01*
X413500D01*
Y356342D01*
D02*
G37*
G36*
X943500Y356342D02*
X940403Y355512D01*
X937097Y353603D01*
X934397Y350903D01*
X932488Y347597D01*
X931658Y344500D01*
X943500D01*
Y356342D01*
D02*
G37*
G36*
X843500D02*
X840403Y355512D01*
X837097Y353603D01*
X834397Y350903D01*
X832488Y347597D01*
X831658Y344500D01*
X843500D01*
Y356342D01*
D02*
G37*
G36*
X960342Y339500D02*
X948500D01*
Y327658D01*
X951597Y328488D01*
X954903Y330397D01*
X957603Y333097D01*
X959512Y336403D01*
X960342Y339500D01*
D02*
G37*
G36*
X860342D02*
X848500D01*
Y327658D01*
X851597Y328488D01*
X854903Y330397D01*
X857603Y333097D01*
X859512Y336403D01*
X860342Y339500D01*
D02*
G37*
G36*
X530342D02*
X518500D01*
Y327658D01*
X521597Y328488D01*
X524903Y330397D01*
X527603Y333097D01*
X529512Y336403D01*
X530342Y339500D01*
D02*
G37*
G36*
X513500D02*
X501658D01*
X502488Y336403D01*
X504397Y333097D01*
X507097Y330397D01*
X510403Y328488D01*
X513500Y327658D01*
Y339500D01*
D02*
G37*
G36*
X430342D02*
X418500D01*
Y327658D01*
X421597Y328488D01*
X424903Y330397D01*
X427603Y333097D01*
X429512Y336403D01*
X430342Y339500D01*
D02*
G37*
G36*
X413500D02*
X401658D01*
X402488Y336403D01*
X404397Y333097D01*
X407097Y330397D01*
X410403Y328488D01*
X413500Y327658D01*
Y339500D01*
D02*
G37*
G36*
X943500D02*
X931658D01*
X932488Y336403D01*
X934397Y333097D01*
X937097Y330397D01*
X940403Y328488D01*
X943500Y327658D01*
Y339500D01*
D02*
G37*
G36*
X843500D02*
X831658D01*
X832488Y336403D01*
X834397Y333097D01*
X837097Y330397D01*
X840403Y328488D01*
X843500Y327658D01*
Y339500D01*
D02*
G37*
G36*
X932000Y329000D02*
X923500D01*
Y320500D01*
X932000D01*
Y329000D01*
D02*
G37*
G36*
X918500D02*
X910000D01*
Y320500D01*
X918500D01*
Y329000D01*
D02*
G37*
G36*
X932000Y315500D02*
X923500D01*
Y307000D01*
X932000D01*
Y315500D01*
D02*
G37*
G36*
X918500D02*
X910000D01*
Y307000D01*
X918500D01*
Y315500D01*
D02*
G37*
G36*
X502000Y489500D02*
X493500D01*
Y481000D01*
X502000D01*
Y489500D01*
D02*
G37*
G36*
X488500D02*
X480000D01*
Y481000D01*
X488500D01*
Y489500D01*
D02*
G37*
G36*
X518500Y482342D02*
Y470500D01*
X530342D01*
X529512Y473597D01*
X527603Y476903D01*
X524903Y479603D01*
X521597Y481512D01*
X518500Y482342D01*
D02*
G37*
G36*
X513500D02*
X510403Y481512D01*
X507097Y479603D01*
X504397Y476903D01*
X502488Y473597D01*
X501658Y470500D01*
X513500D01*
Y482342D01*
D02*
G37*
G36*
X530342Y465500D02*
X518500D01*
Y453658D01*
X521597Y454488D01*
X524903Y456397D01*
X527603Y459097D01*
X529512Y462403D01*
X530342Y465500D01*
D02*
G37*
G36*
X513500D02*
X501658D01*
X502488Y462403D01*
X504397Y459097D01*
X507097Y456397D01*
X510403Y454488D01*
X513500Y453658D01*
Y465500D01*
D02*
G37*
G36*
X468500Y462342D02*
Y450500D01*
X480342D01*
X479512Y453597D01*
X477603Y456903D01*
X474903Y459603D01*
X471597Y461512D01*
X468500Y462342D01*
D02*
G37*
G36*
X463500D02*
X460403Y461512D01*
X457097Y459603D01*
X454397Y456903D01*
X452488Y453597D01*
X451658Y450500D01*
X463500D01*
Y462342D01*
D02*
G37*
G36*
X590500Y445750D02*
X583500D01*
Y439250D01*
X590500D01*
Y445750D01*
D02*
G37*
G36*
X578500D02*
X571500D01*
Y439250D01*
X578500D01*
Y445750D01*
D02*
G37*
G36*
X480342Y445500D02*
X468500D01*
Y433658D01*
X471597Y434488D01*
X474903Y436397D01*
X477603Y439097D01*
X479512Y442403D01*
X480342Y445500D01*
D02*
G37*
G36*
X463500D02*
X451658D01*
X452488Y442403D01*
X454397Y439097D01*
X457097Y436397D01*
X460403Y434488D01*
X463500Y433658D01*
Y445500D01*
D02*
G37*
G36*
X564000Y441000D02*
X555500D01*
Y432500D01*
X564000D01*
Y441000D01*
D02*
G37*
G36*
X550500D02*
X542000D01*
Y432500D01*
X550500D01*
Y441000D01*
D02*
G37*
G36*
X590500Y433250D02*
X583500D01*
Y426750D01*
X590500D01*
Y433250D01*
D02*
G37*
G36*
X578500D02*
X571500D01*
Y426750D01*
X578500D01*
Y433250D01*
D02*
G37*
G36*
X564000Y427500D02*
X555500D01*
Y419000D01*
X564000D01*
Y427500D01*
D02*
G37*
G36*
X550500D02*
X542000D01*
Y419000D01*
X550500D01*
Y427500D01*
D02*
G37*
G36*
X759250Y489500D02*
X752750D01*
Y482500D01*
X759250D01*
Y489500D01*
D02*
G37*
G36*
X920500Y488250D02*
X913500D01*
Y481750D01*
X920500D01*
Y488250D01*
D02*
G37*
G36*
X908500D02*
X901500D01*
Y481750D01*
X908500D01*
Y488250D01*
D02*
G37*
G36*
X759250Y477500D02*
X752750D01*
Y470500D01*
X759250D01*
Y477500D01*
D02*
G37*
G36*
X948500Y482342D02*
Y470500D01*
X960342D01*
X959512Y473597D01*
X957603Y476903D01*
X954903Y479603D01*
X951597Y481512D01*
X948500Y482342D01*
D02*
G37*
G36*
X848500D02*
Y470500D01*
X860342D01*
X859512Y473597D01*
X857603Y476903D01*
X854903Y479603D01*
X851597Y481512D01*
X848500Y482342D01*
D02*
G37*
G36*
X943500Y482342D02*
X940403Y481512D01*
X937097Y479603D01*
X934397Y476903D01*
X932488Y473597D01*
X931658Y470500D01*
X943500D01*
Y482342D01*
D02*
G37*
G36*
X843500D02*
X840403Y481512D01*
X837097Y479603D01*
X834397Y476903D01*
X832488Y473597D01*
X831658Y470500D01*
X843500D01*
Y482342D01*
D02*
G37*
G36*
X748500Y464165D02*
Y457500D01*
X755165D01*
X754853Y458667D01*
X753602Y460833D01*
X751833Y462602D01*
X749667Y463853D01*
X748500Y464165D01*
D02*
G37*
G36*
X960342Y465500D02*
X948500D01*
Y453658D01*
X951597Y454488D01*
X954903Y456397D01*
X957603Y459097D01*
X959512Y462403D01*
X960342Y465500D01*
D02*
G37*
G36*
X860342D02*
X848500D01*
Y453658D01*
X851597Y454488D01*
X854903Y456397D01*
X857603Y459097D01*
X859512Y462403D01*
X860342Y465500D01*
D02*
G37*
G36*
X943500D02*
X931658D01*
X932488Y462403D01*
X934397Y459097D01*
X937097Y456397D01*
X940403Y454488D01*
X943500Y453658D01*
Y465500D01*
D02*
G37*
G36*
X843500D02*
X831658D01*
X832488Y462403D01*
X834397Y459097D01*
X837097Y456397D01*
X840403Y454488D01*
X843500Y453658D01*
Y465500D01*
D02*
G37*
G36*
X910342Y445500D02*
X898500D01*
Y433658D01*
X901597Y434488D01*
X904903Y436397D01*
X907603Y439097D01*
X909512Y442403D01*
X910342Y445500D01*
D02*
G37*
G36*
X893500D02*
X881658D01*
X882488Y442403D01*
X884397Y439097D01*
X887097Y436397D01*
X890403Y434488D01*
X893500Y433658D01*
Y445500D01*
D02*
G37*
G36*
X820000Y441000D02*
X811500D01*
Y432500D01*
X820000D01*
Y441000D01*
D02*
G37*
G36*
X806500D02*
X798000D01*
Y432500D01*
X806500D01*
Y441000D01*
D02*
G37*
G36*
X820000Y427500D02*
X811500D01*
Y419000D01*
X820000D01*
Y427500D01*
D02*
G37*
G36*
X806500D02*
X798000D01*
Y419000D01*
X806500D01*
Y427500D01*
D02*
G37*
G36*
X898500Y376342D02*
Y364500D01*
X910342D01*
X909512Y367597D01*
X907603Y370903D01*
X904903Y373603D01*
X901597Y375512D01*
X898500Y376342D01*
D02*
G37*
G36*
X893500Y376342D02*
X890403Y375512D01*
X887097Y373603D01*
X884397Y370903D01*
X882488Y367597D01*
X881658Y364500D01*
X893500D01*
Y376342D01*
D02*
G37*
G36*
X910342Y359500D02*
X898500D01*
Y347658D01*
X901597Y348488D01*
X904903Y350397D01*
X907603Y353097D01*
X909512Y356403D01*
X910342Y359500D01*
D02*
G37*
G36*
X893500D02*
X881658D01*
X882488Y356403D01*
X884397Y353097D01*
X887097Y350397D01*
X890403Y348488D01*
X893500Y347658D01*
Y359500D01*
D02*
G37*
G36*
X418500Y482342D02*
Y470500D01*
X430342D01*
X429512Y473597D01*
X427603Y476903D01*
X424903Y479603D01*
X421597Y481512D01*
X418500Y482342D01*
D02*
G37*
G36*
X430342Y465500D02*
X418500D01*
Y453658D01*
X421597Y454488D01*
X424903Y456397D01*
X427603Y459097D01*
X429512Y462403D01*
X430342Y465500D01*
D02*
G37*
%LPD*%
D10*
X911000Y490750D02*
D03*
Y509250D02*
D03*
X581000Y424250D02*
D03*
Y405750D02*
D03*
Y448250D02*
D03*
Y466750D02*
D03*
Y509250D02*
D03*
Y490750D02*
D03*
D11*
X750250Y480000D02*
D03*
X731750D02*
D03*
D12*
X578781Y392781D02*
X592063D01*
X566571Y380571D02*
X578781Y392781D01*
X553571Y380571D02*
X566571D01*
X553000Y380000D02*
X553571Y380571D01*
X468500Y380000D02*
X553000D01*
X768500Y395000D02*
X778500D01*
X792716Y380784D01*
Y380000D02*
Y380784D01*
Y380000D02*
X809000D01*
X838500D01*
X581000Y490750D02*
X586000D01*
X567750D02*
X581000D01*
X429000Y520500D02*
X538000D01*
X567750Y490750D01*
X383500Y475000D02*
X429000Y520500D01*
X586000Y490750D02*
X586750Y490000D01*
X838500Y380000D02*
X871000Y347500D01*
Y318000D02*
Y347500D01*
X441000Y407500D02*
X468500Y380000D01*
X441000Y407500D02*
Y492000D01*
X396000Y407500D02*
X441000D01*
X383500Y420000D02*
X396000Y407500D01*
X383500Y420000D02*
Y475000D01*
X631000Y492929D02*
Y505000D01*
X586750Y490000D02*
X628071D01*
X631000Y492929D01*
D13*
X731000Y463411D02*
Y505000D01*
X733500Y449822D02*
X778322Y405000D01*
X733500Y449822D02*
Y460911D01*
X778322Y405000D02*
X809000D01*
X672894Y492500D02*
X683328D01*
X586947Y406553D02*
X672894Y492500D01*
X597750Y466750D02*
X598500Y467500D01*
X553750Y405750D02*
X581000D01*
X665500Y499500D02*
X671000Y505000D01*
X665500Y497000D02*
Y499500D01*
X636000Y467500D02*
X665500Y497000D01*
X598500Y467500D02*
X636000D01*
X647343Y493843D02*
Y501343D01*
X632250Y478750D02*
X647343Y493843D01*
Y501343D02*
X651000Y505000D01*
X567250Y478750D02*
X632250D01*
X731000Y463411D02*
X733500Y460911D01*
X910500Y465500D02*
X938500Y437500D01*
X841000Y505000D02*
X880500Y465500D01*
X910500D01*
X838500Y520000D02*
X849250Y509250D01*
X712757Y520000D02*
X838500D01*
X849250Y509250D02*
X911000D01*
X936750D02*
X976000Y470000D01*
X928500Y375000D02*
X976000Y422500D01*
Y470000D01*
X928500Y361011D02*
Y375000D01*
X938500Y437500D02*
X954000D01*
X751000Y505000D02*
X841000D01*
X569250Y466750D02*
X581000D01*
X530000Y506000D02*
X569250Y466750D01*
X533400Y512500D02*
X533500D01*
X567250Y478750D01*
X469500Y506000D02*
X530000D01*
X432107Y513000D02*
X532900D01*
X533400Y512500D01*
X581000Y466750D02*
X597750D01*
X466000Y502500D02*
X469500Y506000D01*
X466000Y492000D02*
Y502500D01*
X396000Y476893D02*
X432107Y513000D01*
X396000Y449500D02*
X408000Y437500D01*
X396000Y449500D02*
Y476893D01*
X685672Y494843D02*
Y499672D01*
X691000Y505000D01*
X683328Y492500D02*
X685672Y494843D01*
X553000Y405000D02*
X553750Y405750D01*
X711000Y518243D02*
X712757Y520000D01*
X711000Y505000D02*
Y518243D01*
X911000Y509250D02*
X936750D01*
X897231Y329743D02*
X928500Y361011D01*
X896000Y318000D02*
X897231Y319231D01*
Y329743D01*
D14*
X751000Y505000D02*
X751000Y505000D01*
D15*
X611000Y505000D02*
D03*
X631000D02*
D03*
X651000D02*
D03*
X671000D02*
D03*
X691000D02*
D03*
X711000D02*
D03*
X731000D02*
D03*
X751000D02*
D03*
D16*
X363000Y437500D02*
D03*
Y372500D02*
D03*
X408000Y437500D02*
D03*
Y372500D02*
D03*
X441000Y492000D02*
D03*
X466000D02*
D03*
X491000D02*
D03*
X553000Y430000D02*
D03*
Y405000D02*
D03*
Y380000D02*
D03*
X809000Y430000D02*
D03*
Y405000D02*
D03*
Y380000D02*
D03*
X871000Y318000D02*
D03*
X896000D02*
D03*
X921000D02*
D03*
X954000Y437500D02*
D03*
Y372500D02*
D03*
X999000Y437500D02*
D03*
Y372500D02*
D03*
D17*
X466000Y362000D02*
D03*
Y448000D02*
D03*
X416000Y342000D02*
D03*
X516000D02*
D03*
Y468000D02*
D03*
X416000D02*
D03*
X946000Y342000D02*
D03*
X846000D02*
D03*
Y468000D02*
D03*
X946000D02*
D03*
X896000Y362000D02*
D03*
Y448000D02*
D03*
D18*
X301000Y405000D02*
D03*
X1061000D02*
D03*
D19*
X616000Y455000D02*
D03*
X746000D02*
D03*
M02*
