M48
;Layer_Color=9474304
;FILE_FORMAT=4:4
METRIC,TZ
;TYPE=PLATED
T01F00S00C0.8000
T02F00S00C1.6000
;TYPE=NON_PLATED
T03F00S00C1.0000
T04F00S00C1.5000
T05F00S00C1.6000
T06F00S00C1.7000
%
T01
X611000Y505000
X631000
X651000
X671000
X691000
X711000
X731000
X751000
T02
X416000Y342000
X516000
X846000
X946000
Y468000
X846000
X516000
X416000
T03
X363000Y372500
X408000
X553000Y380000
X809000
X871000Y318000
X896000
X921000
X954000Y372500
X999000Y372500
Y437500
X954000
X809000Y430000
Y405000
X553000
Y430000
X491000Y492000
X466000
X441000
X408000Y437500
X363000Y437500
T04
X616000Y455000
X746000
T05
X466000Y362000
X896000
Y448000
X466000
T06
X1061000Y405000
X301000
M30
